PathFileType	4	(X/Y/Z)	/Users/itak/Documents/Research/Walk-IL/dataset/trc/00138_00007.trc
DataRate	CameraRate	NumFrames	NumMarkers	Units	OrigDataRate	OrigDataStartFrame	OrigNumFrames
100.000000	100.000000	4	53	mm	100.000000	140	563
Frame#	Time	RPSI			LPSI			L3			STRN			T10			C7			CLAV			RBAK			LBAK			LSHO			LUPA			LAEL			LAOL			LWTS			LWPS			LFRA			LIFD			LHPS			LHTS			RSHO			RUPA			RAEL			RAOL			RWTS			RWPS			RFRA			RIFD			RHTS			RHPS			RBHD			LFHD			RFHD			LBHD			LHIP			RHIP			RASI			LASI			LKNE			LTHI			LANK			LTIP			LTOE			LMT1			LMT5			LHEE			RKNE			RTHI			RANK			RTIP			RTOE			RMT1			RMT5			RHEE			
		X1	Y1	Z1	X2	Y2	Z2	X3	Y3	Z3	X4	Y4	Z4	X5	Y5	Z5	X6	Y6	Z6	X7	Y7	Z7	X8	Y8	Z8	X9	Y9	Z9	X10	Y10	Z10	X11	Y11	Z11	X12	Y12	Z12	X13	Y13	Z13	X14	Y14	Z14	X15	Y15	Z15	X16	Y16	Z16	X17	Y17	Z17	X18	Y18	Z18	X19	Y19	Z19	X20	Y20	Z20	X21	Y21	Z21	X22	Y22	Z22	X23	Y23	Z23	X24	Y24	Z24	X25	Y25	Z25	X26	Y26	Z26	X27	Y27	Z27	X28	Y28	Z28	X29	Y29	Z29	X30	Y30	Z30	X31	Y31	Z31	X32	Y32	Z32	X33	Y33	Z33	X34	Y34	Z34	X35	Y35	Z35	X36	Y36	Z36	X37	Y37	Z37	X38	Y38	Z38	X39	Y39	Z39	X40	Y40	Z40	X41	Y41	Z41	X42	Y42	Z42	X43	Y43	Z43	X44	Y44	Z44	X45	Y45	Z45	X46	Y46	Z46	X47	Y47	Z47	X48	Y48	Z48	X49	Y49	Z49	X50	Y50	Z50	X51	Y51	Z51	X52	Y52	Z52	X53	Y53	Z53	

141	1.4	-871.8192138671875	1129.739379882812	1171.187255859375	-873.2098388671875	1132.423950195312	1035.788208007812	-878.3562622070312	1164.323608398438	1100.227416992188	-661.4558715820312	1361.144287109375	1094.837280273438	-917.1614990234375	1315.472778320312	1096.443115234375	-879.4368286132812	1606.799438476562	1079.686157226562	-696.9329223632812	1496.448852539062	1089.093383789062	-936.6603393554688	1423.927734375	1168.6826171875	-886.4462890625	1586.290405273438	977.5064086914062	-799.200927734375	1569.872802734375	908.9697875976562	-820.6248779296875	1436.677368164062	840.1912231445312	-802.6197509765625	1216.897827148438	822.3091430664062	-866.4749145507812	1204.52197265625	882.4555053710938	-690.3385009765625	963.3440551757812	862.9736938476562	-773.1912841796875	934.5604248046875	841.0426025390625	-782.8518676757812	1101.28173828125	819.2176513671875	-667.7662963867188	769.4224853515625	886.0609130859375	-742.3740234375	859.4031982421875	842.9091796875	-674.7011108398438	873.806396484375	855.572509765625	-824.6209106445312	1588.023803710938	1261.38330078125	-843.5299072265625	1515.273315429688	1325.773315429688	-858.0726928710938	1220.5888671875	1344.39111328125	-864.7125854492188	1219.384155273438	1248.425659179688	-708.95263671875	980.2030029296875	1333.008178710938	-784.0791625976562	962.3289184570312	1363.39404296875	-833.8740844726562	1146.977416992188	1360.950805664062	-676.2474365234375	788.0488891601562	1312.533325195312	-675.927490234375	873.2974853515625	1337.883911132812	-743.5366821289062	862.0565185546875	1364.219116210938	-824.2778930664062	1779.673095703125	1163.55224609375	-676.8448486328125	1838.68798828125	1011.302124023438	-660.2394409179688	1843.91162109375	1140.406616210938	-848.2101440429688	1779.273071289062	1030.655517578125	-784.6967163085938	1040.503173828125	926.685302734375	-740.7173461914062	1031.0322265625	1286.125732421875	-661.672119140625	1104.960815429688	1229.6220703125	-673.6588745117188	1102.397827148438	964.0240478515625	-759.0985717773438	538.0415649414062	943.9719848632812	-782.06298828125	684.8397216796875	920.9525756835938	-884.3574829101562	36.87977600097656	950.33984375	-868.5963134765625	294.4959411621094	920.8369750976562	-650.4385375976562	41.76224899291992	992.9191284179688	-728.7659912109375	44.7175407409668	1033.460083007812	-761.8256225585938	37.71760559082031	918.8631591796875	-951.4326171875	40.16962814331055	1014.902954101562	-739.4043579101562	537.4984741210938	1235.13916015625	-718.3123168945312	815.597412109375	1272.998413085938	-877.6361083984375	34.40051651000977	1224.286865234375	-770.1666870117188	403.1278991699219	1246.848999023438	-648.1538696289062	49.19231796264648	1163.592895507812	-709.2488403320312	37.98365783691406	1122.815795898438	-743.975830078125	42.72895050048828	1240.034057617188	-937.6704711914062	34.32008743286133	1178.107299804688	
142	1.41	-871.18310546875	1129.689086914062	1172.21337890625	-872.554931640625	1132.3544921875	1036.757446289062	-877.6924438476562	1164.367309570312	1101.2431640625	-660.5089721679688	1360.866577148438	1095.747192382812	-916.248291015625	1315.625122070312	1097.47998046875	-877.9667358398438	1606.909423828125	1080.636108398438	-695.7101440429688	1496.23046875	1089.965454101562	-935.5819702148438	1424.172119140625	1169.693481445312	-885.0719604492188	1586.375	978.4536743164062	-797.8845825195312	1569.771118164062	909.8943481445312	-819.5872192382812	1436.662353515625	841.0921020507812	-802.1532592773438	1216.938720703125	822.9522094726562	-865.98388671875	1204.612426757812	883.1567993164062	-690.0228881835938	963.320068359375	863.1687622070312	-772.86962890625	934.5928955078125	841.359375	-782.4917602539062	1101.315063476562	819.699462890625	-667.4142456054688	769.3736572265625	886.0264282226562	-742.0343627929688	859.424072265625	843.0874633789062	-674.4083862304688	873.7756958007812	855.7081909179688	-823.0672607421875	1588.04443359375	1262.303833007812	-842.1285400390625	1515.321655273438	1326.689819335938	-857.32421875	1220.626831054688	1345.135620117188	-863.9760131835938	1219.501098632812	1249.229614257812	-708.9196166992188	979.8353271484375	1333.658569335938	-784.0987548828125	962.145263671875	1364.087890625	-833.2860107421875	1146.968505859375	1361.665161132812	-676.78125	787.5828857421875	1313.1162109375	-676.2386474609375	872.8228149414062	1338.483764648438	-743.9161987304688	861.8402099609375	1364.79931640625	-822.7268676757812	1779.576782226562	1164.364501953125	-675.6923828125	1838.628051757812	1011.701293945312	-658.87109375	1844.060302734375	1140.7900390625	-846.9437866210938	1778.904541015625	1031.5185546875	-784.106689453125	1040.536987304688	927.4292602539062	-740.0650024414062	1030.831298828125	1287.166259765625	-661.058837890625	1104.70703125	1230.592895507812	-673.0850830078125	1102.229248046875	964.9583129882812	-757.6658325195312	537.90869140625	944.4805908203125	-780.993408203125	684.757568359375	921.5128173828125	-884.3937377929688	36.94491195678711	950.407958984375	-867.8865966796875	294.5246276855469	921.2708129882812	-650.4183959960938	41.74526596069336	992.8950805664062	-728.745361328125	44.71136856079102	1033.447875976562	-761.8092651367188	37.702880859375	918.8462524414062	-951.401123046875	40.25968933105469	1015.043029785156	-738.9674072265625	537.2993774414062	1235.399169921875	-717.7603149414062	815.3308715820312	1273.588012695312	-877.65234375	34.32944869995117	1224.441284179688	-769.676513671875	402.9183044433594	1247.136108398438	-648.3070068359375	49.35105895996094	1163.4775390625	-709.3924560546875	38.10030746459961	1122.737182617188	-743.9885864257812	42.75917816162109	1239.943481445312	-937.7615356445312	34.22098922729492	1178.209716796875	
143	1.42	-870.5225830078125	1129.669921875	1173.24169921875	-871.8837280273438	1132.311645507812	1037.75537109375	-876.9998168945312	1164.4326171875	1102.279418945312	-659.5242919921875	1360.589965820312	1096.69189453125	-915.26904296875	1315.794067382812	1098.55908203125	-876.4452514648438	1607.046630859375	1081.670043945312	-694.4279174804688	1496.025390625	1090.8662109375	-934.4292602539062	1424.446655273438	1170.781494140625	-883.6688842773438	1586.471069335938	979.5031127929688	-796.5677490234375	1569.684936523438	910.8720092773438	-818.568359375	1436.673706054688	842.046630859375	-801.752685546875	1216.997680664062	823.6442260742188	-865.5327758789062	1204.734252929688	883.9390869140625	-689.7449951171875	963.3088989257812	863.365966796875	-772.6015014648438	934.6497192382812	841.7002563476562	-782.2120361328125	1101.362426757812	820.224609375	-667.08203125	769.3515014648438	885.9679565429688	-741.7448120117188	859.46533203125	843.2913208007812	-674.143310546875	873.7683715820312	855.8257446289062	-821.4188842773438	1588.091796875	1263.279663085938	-840.609130859375	1515.402465820312	1327.660034179688	-856.46044921875	1220.69775390625	1345.986083984375	-863.1758422851562	1219.634887695312	1250.122436523438	-708.86962890625	979.46240234375	1334.322265625	-784.0807495117188	961.9768676757812	1364.840087890625	-832.5933227539062	1146.992309570312	1362.462280273438	-677.3882446289062	787.0910034179688	1313.679931640625	-676.5814819335938	872.322265625	1339.075927734375	-744.2969360351562	861.6142578125	1365.421997070312	-821.118896484375	1779.497314453125	1165.221557617188	-674.4983520507812	1838.580322265625	1012.121337890625	-657.44970703125	1844.236328125	1141.191162109375	-845.6437377929688	1778.543212890625	1032.436157226562	-783.4684448242188	1040.589721679688	928.1759643554688	-739.4130249023438	1030.66552734375	1288.24755859375	-660.4525756835938	1104.4453125	1231.624145507812	-672.4943237304688	1102.082275390625	965.9498901367188	-755.9573974609375	537.7389526367188	945.0488891601562	-779.7033081054688	684.641845703125	922.1062622070312	-884.4366455078125	37.02661514282227	950.4970703125	-866.9998168945312	294.5535888671875	921.739013671875	-650.3794555664062	41.71289825439453	992.8814697265625	-728.7175903320312	44.69185256958008	1033.443359375	-761.7913818359375	37.69184875488281	918.831787109375	-951.3626708984375	40.37035369873047	1015.206970214844	-738.66162109375	537.1280517578125	1235.754028320312	-717.2373046875	815.0906372070312	1274.243896484375	-877.6602783203125	34.24564361572266	1224.621459960938	-769.31689453125	402.7374267578125	1247.50390625	-648.4777221679688	49.50076293945312	1163.35302734375	-709.564697265625	38.22306823730469	1122.653686523438	-743.9922485351562	42.7812385559082	1239.85595703125	-937.854248046875	34.13005828857422	1178.327758789062	
144	1.43	-869.8507080078125	1129.67822265625	1174.2744140625	-871.2111206054688	1132.301879882812	1038.783569335938	-876.28564453125	1164.522583007812	1103.33251953125	-658.4986572265625	1360.317260742188	1097.669921875	-914.2261352539062	1315.984497070312	1099.678955078125	-874.8660888671875	1607.212158203125	1082.780883789062	-693.0885009765625	1495.833618164062	1091.794677734375	-933.2000732421875	1424.752319335938	1171.94482421875	-882.2317504882812	1586.58251953125	980.6397094726562	-795.2487182617188	1569.618408203125	911.8963623046875	-817.5711059570312	1436.70947265625	843.0531616210938	-801.4093017578125	1217.076171875	824.3823852539062	-865.1201782226562	1204.884033203125	884.7945556640625	-689.4994506835938	963.3094482421875	863.5758666992188	-772.3817138671875	934.7268676757812	842.0655517578125	-782.0123901367188	1101.42626953125	820.790283203125	-666.7781372070312	769.3531494140625	885.9020385742188	-741.5123901367188	859.523681640625	843.5225219726562	-673.9090576171875	873.7804565429688	855.9320068359375	-819.6783447265625	1588.16845703125	1264.307739257812	-838.974609375	1515.518432617188	1328.682250976562	-855.474853515625	1220.810791015625	1346.94775390625	-862.3087768554688	1219.797607421875	1251.106811523438	-708.788818359375	979.085205078125	1334.997436523438	-784.0155639648438	961.8285522460938	1365.646606445312	-831.789794921875	1147.053588867188	1363.344482421875	-678.0650634765625	786.57568359375	1314.22509765625	-676.9468994140625	871.8008422851562	1339.662353515625	-744.6643676757812	861.3786010742188	1366.09619140625	-819.449951171875	1779.43505859375	1166.115112304688	-673.265380859375	1838.54833984375	1012.561096191406	-655.9684448242188	1844.438598632812	1141.604736328125	-844.3041381835938	1778.193481445312	1033.402221679688	-782.78857421875	1040.660766601562	928.9315185546875	-738.7843017578125	1030.52490234375	1289.3701171875	-659.8662719726562	1104.172241210938	1232.711059570312	-671.8845825195312	1101.95458984375	966.9974975585938	-753.9360961914062	537.5263671875	945.6771850585938	-778.1715698242188	684.4874877929688	922.7399291992188	-884.4818115234375	37.12691879272461	950.6091918945312	-865.9239501953125	294.5836486816406	922.2418823242188	-650.3217163085938	41.66533279418945	992.8766479492188	-728.682373046875	44.66206741333008	1033.444580078125	-761.771484375	37.68326187133789	918.8192138671875	-951.314697265625	40.51066589355469	1015.391235351562	-738.4529418945312	536.9840087890625	1236.194702148438	-716.7452392578125	814.8671875	1274.971435546875	-877.6680908203125	34.14583206176758	1224.811157226562	-769.060302734375	402.5737915039062	1247.946533203125	-648.66162109375	49.63501739501953	1163.221313476562	-709.7599487304688	38.34554672241211	1122.5693359375	-743.991943359375	42.79415130615234	1239.772216796875	-937.9452514648438	34.05046081542969	1178.46044921875	
